# xmcd CD database file
# Copyright (C) 1995-1998 Ti Kan
#
# Track frame offsets:
#	150
#	16222
#	31822
#	47045
#	61040
#	71490
#	87672
#	101457
#	114412
#	131885
#
# Disc length: 1941 seconds
#
# Revision: 1
# Processed by: cddbd v1.4b41PL1 Copyright (c) Steve Scherf et al.
# Submitted via: CDex 1.30
#
DISCID=7e07930a
DTITLE=Mickey Gilley - Chasing Rainbows
DYEAR=1900
DGENRE=Country
TTITLE0=She Reminded Me Of You
TTITLE1=You Still Got A Way With My Heart
TTITLE2=Chasing Rainbows
TTITLE3=Me And The Blues
TTITLE4=There I've Said It Again
TTITLE5=I'm Your Puppet
TTITLE6=Baby I Feel For You
TTITLE7=Easy Climb
TTITLE8=It's Killing Me To Watch Love Die
TTITLE9=Couldn't Love Have Picked A Better Place To Die
EXTD=\nYEAR:       ID3G:   2
EXTT0=
EXTT1=
EXTT2=
EXTT3=
EXTT4=
EXTT5=
EXTT6=
EXTT7=
EXTT8=
EXTT9=
PLAYORDER=
